<svg id="Layer_1" data-name="Layer 1" xmlns="http://www.w3.org/2000/svg" viewBox="0 0 8102.74 1712.65"><defs><style>.cls-1{fill:#6abd47;}.cls-2{fill:#cc0944;}</style></defs><path class="cls-1" d="M2393.16,847.68q0-185,0-369.93c0-22.3-2.67-19.24,19.51-24.52,64.75-15.43,129.64-30.32,194.47-45.43,2.59-.6,5.15-1.39,7.77-1.81,3.78-.61,6.61.79,6.92,4.89.39,5.31.45,10.65.46,16,.09,50,0,100,.25,150,.29,57.32.88,114.64,1.35,171.95,0,3.33,0,6.67.23,10,.35,5.5,3.25,7.32,7.65,4.74,3.44-2,6.77-4.24,10.08-6.48,52.61-35.57,110.51-58.51,172.49-71.15,47.8-9.75,96.21-14.39,145-11.44,145.48,8.78,269.16,64.87,369.37,171.32,70.33,74.72,114.8,163,135.11,263.19,11.17,55.18,12.7,111,6.25,167.08-13.81,120-63.41,223.37-145.83,311-39.07,41.55-84.38,75.37-134.65,102.51-37.66,20.33-76.71,37-118.28,47.61A557.22,557.22,0,0,1,2931,1754.31c-63.95-.16-126-11-185.71-33.86A545.6,545.6,0,0,1,2566.63,1609,535.71,535.71,0,0,1,2431,1408.8c-19.41-50-30.46-101.75-34.58-155.36-5.38-69.92-3.23-139.84-3.19-209.78q.06-98,0-196Zm231.63,365.21c-1.61,157.21,121.7,307.25,309.57,311.56,181.62-3.78,308.37-147.37,309.71-307.68,1.46-174.71-140.7-312.69-309.85-312.73C2764.32,904,2624.1,1043.33,2624.79,1212.89Z" transform="translate(-160.11 -405.85)"/><path class="cls-1" d="M4590.1,1469.85q0,128.94,0,257.88c0,6-.12,12-.64,18a3.77,3.77,0,0,1-4.07,3.49,73.25,73.25,0,0,1-9.85-1.06q-93.41-21.43-186.78-43c-19.43-9-37.87-5-57.63,1.2-52.76,16.59-107,27.45-161.67,35.78a924,924,0,0,1-99.28,10c-67.94,2.92-134.29-6.46-198.31-29.23-182.78-65-316.31-218-353.44-406.17-11-55.94-12.45-112.3-6.12-169,9-80.18,35.4-154.22,78-222.4a531.54,531.54,0,0,1,137.83-148.54c70.61-51.72,149-85.67,235.55-98.19,154.65-22.36,295.43,12.68,418.61,109.85,105,82.81,169.91,191,195.62,322.46,8.21,42,11,84.54,11.36,127.16.62,77.29.18,154.59.18,231.89Zm-232.56-256.43c1.84-166.1-132.16-312.19-310.86-311.55-173.68.62-305.6,139.8-308.52,303.92-3,169.9,132.13,315,308.94,315.65C4222.21,1522.09,4357.5,1378.66,4357.54,1213.42Z" transform="translate(-160.11 -405.85)"/><path class="cls-1" d="M1817.77,676.6c289.81-1.7,542.77,235.64,538.68,547.55-3.92,299.11-249.77,533.12-540.52,532.82-296.38-.31-547.3-247.11-538.54-556.65C1285.64,908.63,1526,674.75,1817.77,676.6Zm-310,537.15c-3.69,164.56,131.74,312.45,309.81,312.08,175.33-.37,308.85-146.1,309-309.68.17-158.2-126.56-310.22-310.59-310C1634.76,906.43,1505.62,1057.1,1507.81,1213.75Z" transform="translate(-160.11 -405.85)"/><path class="cls-1" d="M699.34,1759.13c-43.65-.92-86.79-4.41-128.83-15.77-153.78-41.57-270.36-131.07-347.17-271.16a504.25,504.25,0,0,1-58.9-185.45c-12.44-106.47,1.26-209.24,49.93-305.17,80-157.63,206.91-256,380.41-292.69A494.29,494.29,0,0,1,723.9,678.76c114.43,6.13,217.8,43,307.85,114.16q159.15,125.75,198.16,325.59a511.81,511.81,0,0,1,9.46,97.27c.06,55.5-7.59,110.14-24.52,163.3q-50.25,157.82-179.23,261.54c-27,21.81-56.48,40-87,56.62-59.35,32.39-122.94,50.67-189.7,58.5C739.12,1758.06,719,1758.08,699.34,1759.13ZM1009.48,1219c-.05-173.53-141.7-309.69-308.29-310.59-164.51-.89-310.1,130.77-311.55,307.15-1.4,169.54,132.54,312.93,310,312.51C881.23,1527.6,1008.6,1381,1009.48,1219Z" transform="translate(-160.11 -405.85)"/><path class="cls-2" d="M6793.31,1262.19c9.7-5.33,14-11.36,18.91-16.53,97.68-102.09,195.55-204,292.61-306.66,12.6-13.33,25.12-18.43,43.25-18.06,56.62,1.13,113.29.4,169.94.43q8,0,16,.36c2.56.12,3.94,3.94,2.13,6-3.09,3.49-6.34,6.85-9.56,10.21l-195,203.62q-42.87,44.78-85.69,89.57c-3.64,3.82-8.06,7.08-9.85,12.49,2,7.21,7.06,12.71,11.13,18.73q151,223.61,302.1,447.19c4.35,6.44,10.65,12,11.55,20.41-7.59,5.88-16.39,2.74-24.54,2.79-52.65.33-105.3.17-158,.17-4.66,0-9.33-.2-14,0a11.29,11.29,0,0,1-10.25-5c-3.11-4.32-6.05-8.77-9-13.18q-107.7-158.82-215.44-317.59c-4-5.92-7-12.82-13.34-16.68-5.77,2.15-8.89,6.66-12.58,10.38-33.31,33.61-66.31,67.53-99.94,100.81-7.76,7.68-10.72,15.55-10.65,26.32.41,62.65.2,125.3.2,188,0,4.67.08,9.33,0,14-.26,12.48-.39,12.61-12,12.92-3.33.1-6.66,0-10,0q-64,0-128,0c-5.32,0-10.64-.15-15.95-.51-3-.2-4.75-2.3-4.94-5.24-.29-4.65-.42-9.31-.42-14q0-545.85,0-1091.71c0-22-1.29-20.24,20.77-20.25q65,0,130,0c4.66,0,9.33,0,14,.24,3.82.16,6.15,2.25,6.3,6.14.21,6,.26,12,.26,18q0,305.91,0,611.83Z" transform="translate(-160.11 -405.85)"/><path class="cls-2" d="M5770,1062.71c7.62-4.22,9.22-9.58,12.08-13.88,47.79-71.78,114.24-116,198.26-134,28.21-6.06,56.89-6.83,85.56-4.95,30.66,2,60.91,6.9,89.93,17.39q139.08,50.31,177.15,193.36a372.71,372.71,0,0,1,12.75,88.79c.2,10,.48,20,.48,30q0,234.9,0,469.8c0,26.86,2.42,23.61-23.19,23.7-41.32.14-82.63.05-123.95,0q-8,0-16-.17c-5-.1-7-3.14-7.09-7.66-.17-6-.18-12-.18-18q0-205.9-.11-411.82c-.06-33.32-1.78-66.59-10.16-99.14a233.28,233.28,0,0,0-15.38-43.17c-19.92-41.43-51.62-69.62-96.19-80.82-74.51-18.72-144-8.1-206,39.82-37.5,29-60.15,67.07-70.5,112.82a321.67,321.67,0,0,0-7.52,71.39q.12,204.9,0,409.82c0,5.33.11,10.66-.05,16-.28,9.76-1.05,10.83-9.95,10.85q-75,.17-149.94,0c-9.48,0-10.43-1.11-10.83-10.16-.23-5.32-.11-10.66-.11-16q0-379.83,0-759.67c0-29.76-2.41-25.45,25.47-25.6,41.32-.22,82.63-.07,123.95,0,5.32,0,10.66.08,16,.38a5.07,5.07,0,0,1,5,5.12c.32,5.31.44,10.63.45,16q.06,50,0,99.95Z" transform="translate(-160.11 -405.85)"/><path class="cls-2" d="M4858.05,1167.06q0,269.82-.06,539.66c0,30.37,3.92,25.94-26.71,26.12-40.64.24-81.29.07-121.93.06-4.66,0-9.32-.09-14-.13s-7.45-2.47-7.68-7.16c-.27-5.32-.25-10.65-.25-16q0-542.67,0-1085.33c0-4.67-.1-9.34.13-14,.38-7.43,1.84-9,9.87-9q75.95-.15,151.9,0c.67,0,1.33.09,2,.12,3.84.2,6.2,2.17,6.37,6,.26,6,.3,12,.3,18q0,270.83,0,541.67Z" transform="translate(-160.11 -405.85)"/><path class="cls-2" d="M5314,1327.21q0,192,0,384c0,24.09,1.69,21.62-21.25,21.66q-65,.14-130,0-6,0-12-.19c-4.94-.15-7-3.18-7.14-7.7-.17-4-.19-8-.19-12q0-386,0-772c0-21-.3-19.66,19.53-19.66h132c4,0,8,.09,12,.15,5.07.08,6.87,3.2,7,7.71.12,6,.12,12,.12,18Q5314,1137.22,5314,1327.21Z" transform="translate(-160.11 -405.85)"/><path class="cls-2" d="M5338.24,683.88c2.52,53.86-46.05,108.43-107.73,108.43-59.83,0-109.36-49.82-108.84-109.79.51-58.94,50.28-107.61,109.2-107.37C5294,575.42,5341.2,631.67,5338.24,683.88Z" transform="translate(-160.11 -405.85)"/><path class="cls-2" d="M4861.51,1918.48c46.17-35.55,89.3-27.76,116.81,6.71,3.71-3.64,7.23-7.35,11-10.78,21.28-19.33,58.43-24.9,84.23-12.65,17.63,8.37,27.17,23,31.21,41.5a86.84,86.84,0,0,1,1.77,17.86q.27,44,.05,87.9c0,8.08-1.41,9.29-9.06,9.51-1.33,0-2.66,0-4,0-7-.29-8.28-1.33-8.48-8s-.07-13.31-.08-20c0-20-.1-40,0-59.94,0-9.41-.94-18.69-4.14-27.51-5.43-15-16-24.22-32-26.46a76.46,76.46,0,0,0-13.93-.78c-27.52,1.22-45.92,18.1-49.4,45.58-.92,7.23-.8,14.62-.84,21.94-.1,22,0,44-.1,65.92-.05,7.66-1.67,9.08-9.42,9.25a57,57,0,0,1-7.94-.44,5.11,5.11,0,0,1-4.92-5.2c-.2-4.65-.22-9.32-.22-14,0-24,0-48-.1-71.92,0-8.68-.7-17.24-4.14-25.45-5.89-14.06-16.17-22.37-31.18-24.9a69.81,69.81,0,0,0-21.88-.11c-18.83,2.76-31.58,13.33-38.61,30.72-3.77,9.33-4.91,19.25-4.84,29.37q.24,36,0,71.92c0,8.93-1.38,10-10.59,10a31.15,31.15,0,0,1-6-.34c-2.69-.54-5-1.77-5.23-5-.16-2.66-.32-5.32-.32-8q0-66.92,0-133.85c0-2.66.09-5.32.24-8,.22-3.84,2.27-6.13,6.14-6.29a75.1,75.1,0,0,1,9.95.21,5.1,5.1,0,0,1,5,5.1C4860.85,1907,4861.09,1911.65,4861.51,1918.48Z" transform="translate(-160.11 -405.85)"/><path class="cls-2" d="M7144.59,2031.77c0,26.41,0,48.33,0,70.24,0,4-.12,8-.5,11.93a4.13,4.13,0,0,1-2.13,2.94,23.66,23.66,0,0,1-17.36-.06,4.13,4.13,0,0,1-2.06-3c-.35-4.63-.48-9.28-.48-13.93q0-91.77,0-183.56c0-4.65.06-9.31.36-13.94a5.23,5.23,0,0,1,5-5.16,107.16,107.16,0,0,1,11.88.23,4.18,4.18,0,0,1,3.9,3.89c.67,5.89.9,11.84,1.26,17.33,4.68,3.32,6.57-.61,8.47-2.63,24.17-25.75,70-25.68,96.26-9.19,26.7,16.79,37.72,41.84,37.18,72.68s-12.6,55.65-40.25,70.85c-31.46,17.29-69.42,11.75-91.2-9.08C7152.65,2039.15,7150.3,2037.05,7144.59,2031.77Zm-.05-58.51c0,5.6-.05,6.94,0,8.27,1.36,33.32,23.91,57.22,56.06,59.13,26.1,1.54,55.89-13.68,62.68-49.9a70,70,0,0,0-1.43-31.61c-7.19-26.82-29.41-44.8-56.93-44.51-28.3.31-49.59,15-58,43.15C7145,1964.08,7144.89,1970.89,7144.54,1973.26Z" transform="translate(-160.11 -405.85)"/><path class="cls-2" d="M4549.46,2057.61c0-26.37,0-51,0-75.61,0-7.33.21-14.68-.37-22-2.29-29-19.36-44.51-48.48-44.36a81,81,0,0,0-10,.75c-24.47,3.06-41.32,19.23-45,43.78-1.07,7.2-1,14.61-1,21.92-.14,22.65,0,45.29-.14,67.94,0,6.46-1.84,8.12-8.19,8.41a51.81,51.81,0,0,1-8-.13c-3.63-.4-6.18-2.18-6.22-6.26s-.09-8-.09-12q0-94.9,0-189.82c0-4.66.05-9.32.26-14,.17-3.84,2.3-6.16,6.17-6.39a66.49,66.49,0,0,1,10,0c3.86.34,5.78,2.89,5.93,6.65.17,4.65.2,9.31.21,14,0,17.32-.07,34.64.06,52,0,4.53-1,9.23,1.27,13.57,4.08,2.41,5.94-1.13,8.23-3.11,21.71-18.77,47.15-20.89,73.4-14.6,22.7,5.44,36.36,21.33,41.56,44a103.54,103.54,0,0,1,2.6,21.76c.3,28,.2,55.95.09,83.92,0,9.22-1.17,10.25-10.24,10.45C4558.31,2058.57,4555.06,2058,4549.46,2057.61Z" transform="translate(-160.11 -405.85)"/><path class="cls-2" d="M5992.84,2039.15c-24.86,22.14-51,25.42-78.88,17.6-22.53-6.31-34.53-23.34-34-45.77.44-17.9,9-30.23,25.12-37.45,11.79-5.3,24.44-6.27,37.14-6.45,14.65-.2,29.31,0,44-.24,5-.07,7.05-2.49,7.28-7.36,1.2-25.15-11.22-40.41-36.18-44-17-2.44-33.12,1-48.38,8.55-4.69,2.33-9.14,5.16-13.57,7.69-1.38-.78-2.9-1.15-3.61-2.12-7.9-10.78-10.21-12.78,4.67-21,24.45-13.48,50.69-16.41,77.46-10.42,22.05,4.92,36,19.29,40.14,42.1.95,5.22,2,10.53,2,15.81.18,31.31.14,62.61,0,93.92,0,6.56-1.77,8.09-8.18,8.46-1.33.08-2.66.06-4,.05-6.32-.07-10-.73-9.74-9C5994.25,2046.93,5993.53,2044.33,5992.84,2039.15Zm.77-40.46c0-1.88,0-2.55,0-3.21-.22-11-.46-11.54-11-11.62q-22.9-.16-45.8.36c-6.61.15-13.19.85-19.4,3.78-17.06,8.07-21.5,29.63-8.42,43.19a29.56,29.56,0,0,0,11.48,7.55c18.43,6,36.77,6,53.56-4.85C5986.93,2025.54,5995.57,2014.18,5993.61,1998.69Z" transform="translate(-160.11 -405.85)"/><path class="cls-2" d="M6832.15,1984.86c-19.32,0-38.64-.11-58,.07-6.35.06-8,2.63-6.54,9,4.72,21.33,17.72,35.67,38.09,42.61,22.81,7.77,44.66,5.13,64.61-9.11a49.47,49.47,0,0,0,4.68-3.74c3-2.79,5.72-2.3,8.51.48,7.87,7.83,8,11.16.09,17.7-9.92,8.23-21.24,13.31-33.87,16.2a93.5,93.5,0,0,1-58.69-5.29c-31-13.11-48.14-42.23-47-78.74,1.06-35.26,19.87-63.61,51.17-73.79,59.36-19.3,106.75,21,106.37,74.94-.06,7.54-1.66,9.32-9.44,9.38-20,.17-40,.06-60,.06Zm-8.25-16.59v.19h11.94c12.61,0,25.22,0,37.83-.18,5.24-.09,6.92-2.59,5.77-7.76-7.4-33.44-32.66-46.43-56.74-46.12-27.46.36-49,16.83-55.33,45.31-1.22,5.54.17,8.46,4.77,8.5C6789.39,1968.37,6806.64,1968.27,6823.9,1968.27Z" transform="translate(-160.11 -405.85)"/><path class="cls-2" d="M5182.8,1986.26c.9,24,14.83,42.82,37.91,50.39,22.92,7.51,44.63,5,64.6-9.08,1.63-1.14,3.11-2.5,4.65-3.78,3-2.49,5.88-2.66,8.56.45,1.73,2,3.44,4,5.09,6.13,2,2.51,1.38,5.07-.5,7.18a58.31,58.31,0,0,1-21,14.89c-28.75,12.11-57.12,11-84.57-3.94a69,69,0,0,1-29.69-31.46c-13.55-28.47-12.68-56.88,2.63-84.23,15.41-27.53,46.19-41.16,80.38-36.28,32.29,4.61,52.66,23.52,62.35,54.28a74.55,74.55,0,0,1,3.27,15.6c1.62,18.28.55,18.4-16.14,18.35q-48.92-.16-97.85,0C5195.89,1984.82,5189.17,1983.56,5182.8,1986.26Zm53-18v.16c8,0,16,0,24,0,9.32,0,18.65,0,28-.19,5.11-.14,7.23-2.79,6.29-7.72a60.24,60.24,0,0,0-3.17-11.48c-10.75-26.23-35.65-36.44-57.48-34.59-26.31,2.23-45.92,20-51.3,45.78-1.05,5,.81,7.93,5.76,8C5203.82,1968.4,5219.8,1968.3,5235.79,1968.3Z" transform="translate(-160.11 -405.85)"/><path class="cls-2" d="M8123,1984.77c-19.3,0-38.6-.1-57.89,0-7.3.06-9.25,2.83-7.45,10.06,4.63,18.62,15.5,32.3,33.24,39.77,23,9.69,45.41,8.14,66.72-5.24a67.92,67.92,0,0,0,7.9-6.07c1.71-1.48,3.75-1.95,5.41-.94a19.8,19.8,0,0,1,8.78,10.41c1.07,3.13-1.59,4.93-3.4,6.65-14.17,13.47-31.63,19.23-50.63,20.86-13.43,1.16-26.52-1-39.24-5.38-39.41-13.71-58.4-52.64-51.55-92.78,8.56-50.12,52.08-76.05,101.2-63.65,27.34,6.91,44.35,26,52.26,52.76,2.23,7.57,3,15.67,3.64,23.59.6,7.14-1.92,9.7-9.11,9.76-20,.17-39.92.06-59.88.06Zm-10-16.37v-.07c16.65,0,33.3.09,49.95,0,5.08,0,7.13-2.78,6.41-7.59-3.9-25.84-27.29-45.69-54.77-46.47-28-.8-52.61,18.93-57.24,45.88-1,5.71,1.1,8.19,7.71,8.26C8081,1968.5,8097,1968.4,8113,1968.4Z" transform="translate(-160.11 -405.85)"/><path class="cls-2" d="M7346.09,1986.49c.43,23.62,14.5,42.67,37.75,50.23,22.92,7.45,44.63,4.9,64.57-9.22,1.62-1.15,3.12-2.48,4.64-3.78,3.08-2.64,6-2.31,8.59.63,1.77,2,3.47,4,5.08,6.13,1.93,2.51,1.29,4.94-.67,7.1-8.78,9.66-20,15.44-32.21,19.11a93.27,93.27,0,0,1-57-.84c-44.95-14.83-60.15-56.36-54.06-93.11,8.27-50,51.21-76.53,100.73-64.37,28.2,6.92,45.29,26.6,53.29,54.23a103.45,103.45,0,0,1,2.54,13.73c2.85,19.77-1.44,18.45-15.86,18.42q-52.91-.11-105.8,0C7353.75,1984.77,7349.68,1984.09,7346.09,1986.49Zm53.57-18.06v0c16.65,0,33.3.11,49.95-.06,7.15-.07,9.05-3,7.33-10.27-6.08-25.77-28.26-43.46-55-43.86a56.32,56.32,0,0,0-56.38,44.54c-1.46,6.9.58,9.54,8.16,9.62C7369,1968.54,7384.35,1968.43,7399.66,1968.43Z" transform="translate(-160.11 -405.85)"/><path class="cls-2" d="M6551.3,1984.86c-20,0-39.92-.07-59.88.06-5.16,0-7.09,2.62-6.12,7.67,3.82,19.72,14.9,34,33.29,41.91,22.93,9.87,45.36,8.36,66.74-4.9,2.25-1.4,4.21-3.25,6.38-4.78,5.85-4.11,6.81-4,11.48,1.18.45.49.92,1,1.34,1.48,4.52,5.47,4.51,7.46.05,11.8a71.09,71.09,0,0,1-29.07,16.89,95.44,95.44,0,0,1-60.78-1.1c-39.81-13.76-58.55-52.73-51.91-92.58,8.26-49.65,51.2-76.42,100.92-64,28.18,7,45.24,26.73,53.09,54.42a98.78,98.78,0,0,1,2.84,15.7c1.82,16.1-1.47,16.33-14.47,16.21-18-.18-35.93,0-53.9,0Zm44.71-17.71c4.73-24.48-22.57-53.39-54.7-52.86-15.87.27-30.3,5.12-41.19,17.23-9,10-16.24,21-14.12,35.49C6502.9,1968.93,6579,1969,6596,1967.15Z" transform="translate(-160.11 -405.85)"/><path class="cls-2" d="M3749.61,1979.35c5.9-1.17,9.46-6.35,13.81-10.3,21.71-19.67,43.71-39,64.74-59.43,10.37-10.06,20.93-16,35.69-11.65,2.41,3.65-.77,5.72-3,7.85-14.88,14.31-29.9,28.47-44.74,42.81-4.74,4.58-10.27,8.52-13.72,15.86,11.63,14.71,23.59,29.82,35.53,45s23.87,30.27,36.46,46.25c-8.36,4.56-16.31,3.42-23.72,1.74-3.28-.74-6-4.91-8.51-8q-23.29-28.69-46.31-57.59c-12.59-15.77-11.08-14.39-25.24-1.4-7.83,7.19-17,13.72-22.44,22.48-5.64,9.07-1.32,20.81-2.14,31.34-.26,3.3-.34,6.62-.55,9.93-.16,2.43-2.14,3.53-4,3.8a65.89,65.89,0,0,1-9.95.38c-5,0-7-2.88-6.92-7.6,0-4-.05-8-.05-12q0-93.88,0-187.77c0-3.33-.07-6.67,0-10,.33-10.42,1.45-11.49,11.49-11.31,8.68.15,9.79,1.07,9.84,10.92.15,28.64.06,57.27.07,85.9,0,14.65,0,29.3.08,44C3746.12,1973.74,3745.43,1977.37,3749.61,1979.35Z" transform="translate(-160.11 -405.85)"/><path class="cls-2" d="M2757.62,1895.51c47.55,0,82.09,34.09,82.49,81.45.4,48-35,83.69-82.75,83.57s-83.19-36.06-82.55-83.84C2675.45,1929.31,2709.92,1895.51,2757.62,1895.51Zm-60.19,84.54c-.83,6.42,1.4,14.89,4.59,22.93,9.27,23.39,27.17,36.11,51.89,37.47s44.43-8.39,55.94-31c10.65-20.88,10.52-42.42.16-63.47-7.45-15.12-19.68-25-36.16-29C2732.47,1906.65,2697.5,1934.45,2697.43,1980.05Z" transform="translate(-160.11 -405.85)"/><path class="cls-2" d="M4705.8,1895.51c47.53.07,82,34.29,82.32,81.63.29,48-35.13,83.6-82.94,83.39-47-.2-81.87-34.89-82.38-82C4622.29,1930.49,4657.35,1895.43,4705.8,1895.51ZM4645.49,1981c0,.33,0,3,.35,5.64,3.68,30.92,26.79,52.79,57.11,54.13s55.42-18.54,61.23-49.14a69.85,69.85,0,0,0-2.63-37.44c-8.3-22.86-24.52-36.13-48.6-38.8-23.68-2.62-43.39,5.17-57,25.36C4648.25,1952.06,4645.12,1965,4645.49,1981Z" transform="translate(-160.11 -405.85)"/><path class="cls-2" d="M4199.17,1895.51c47.58.23,81.76,34.5,81.78,82,0,48.2-35.23,83.64-83.11,83-50.23-.69-82.39-38.46-81.86-84.31C4116.46,1935.1,4146,1895.26,4199.17,1895.51Zm58.92,81.44c-.08-1.72-.12-5.06-.43-8.37-3.44-36.2-34.83-59.56-70.63-52.59-28,5.44-45.5,25.58-48.57,55.77-4.61,45.51,35.1,79,78.25,66.07C4242.5,2030.07,4257.79,2008.18,4258.09,1977Z" transform="translate(-160.11 -405.85)"/><path class="cls-2" d="M5826.1,2057c-25.66,4.3-21.22-.53-21.38-16.94-.22-22.63-.16-45.26,0-67.89.06-9.4-.77-18.68-3.73-27.57-5-15.14-15.6-24.42-31.29-27.55a72.46,72.46,0,0,0-21.86-.89c-26.66,2.81-43.92,19.22-47.12,45.87-1.18,9.88-1.09,19.92-1.18,29.89-.19,19.31,0,38.61-.15,57.91-.06,6.69-1.82,8.43-8,8.65a49.85,49.85,0,0,1-9.92-.56,4.14,4.14,0,0,1-3.76-3.94c-.11-2.66-.36-5.31-.36-8q0-67.89,0-135.78a75.64,75.64,0,0,1,.33-8,5.13,5.13,0,0,1,5-5c4.62-.34,9.29-1,13.72.94,4.22,5.73-.38,13.37,4.19,18.94,4.95,1.2,7-3,9.92-5.33,23-18.09,48.82-20.11,75.63-12.19,21.78,6.44,33.57,22.88,38.53,44.49a54,54,0,0,1,1.36,11.88C5826.15,1989.14,5826.1,2022.35,5826.1,2057Z" transform="translate(-160.11 -405.85)"/><path class="cls-2" d="M6108.23,1919.23c20.84-21.33,45.43-26.63,72.53-22.51,25.64,3.9,42.19,18.59,48.77,43.76a90.32,90.32,0,0,1,3.1,21.66c.36,28.64.23,57.3.12,86,0,9.45-1.08,10.3-10.24,10.45a39.86,39.86,0,0,1-6-.18c-3.61-.5-6.18-2.26-6.19-6.33,0-18.66,0-37.32-.11-56-.09-13.32,0-26.67-.8-40s-6.45-24.43-17.45-32.31c-27.59-19.78-72.07-5.35-82.89,26.76-3,9-3.82,18.17-3.78,27.57q.15,35,0,69.95c-.05,9.48-1.09,10.36-10.16,10.46a38.54,38.54,0,0,1-6-.21c-3.74-.57-5.8-2.81-5.88-6.7,0-2-.09-4-.09-6q0-68,0-135.93c0-2.66-.17-5.43.53-7.93.46-1.63,2.23-3.91,3.62-4a66.12,66.12,0,0,1,13.78,0c1.72.18,3,2,3.47,4.28C6105.56,1907,6103.15,1912.57,6108.23,1919.23Z" transform="translate(-160.11 -405.85)"/><path class="cls-2" d="M3017.28,1898.57a8.6,8.6,0,0,1,2.11-.89c19.48-2.27,18.07-.19,18.07,15.65q0,64.86,0,129.74c0,3.33,0,6.66-.22,10-.2,3-1.85,4.89-4.93,5.14-2.64.21-5.3.28-8,.31-4.46.07-7.82-1.19-7.87-6.54a58.53,58.53,0,0,0-.5-7.95c-.62-4.18-3.75-5.77-6.89-3.59-1.63,1.13-3.05,2.55-4.6,3.8-22.21,18-47.25,20-73.51,12-18.36-5.58-30.7-18.25-36.84-36.45a78.79,78.79,0,0,1-4.52-25.44c.08-28.61-.07-57.22.06-85.83,0-10.64,1.21-11.62,11.09-11.62,10,0,11.24,1,11.31,11.55.17,24,0,47.91.12,71.86a159.87,159.87,0,0,0,1.12,21.9c2.91,20.11,14.54,32.31,34.14,36.66,34.88,7.76,62.59-11.65,67-47.11a171.49,171.49,0,0,0,1.08-19.9c.14-19.29,0-38.59.09-57.88C3015.63,1908.74,3014.89,1903.37,3017.28,1898.57Z" transform="translate(-160.11 -405.85)"/><path class="cls-2" d="M7936.23,1895.44c21,.24,38.58,3,54.93,11.44,4.64,2.4,5.25,4.75,2.9,9.66-.57,1.2-1.08,2.44-1.76,3.58-3.42,5.8-5.58,7-11.14,4.13-9.62-5-19.82-7.6-30.39-9.19a79.17,79.17,0,0,0-31.65,2,31.49,31.49,0,0,0-13.94,7.41c-11,10.24-9.78,25.77,2.78,34.09,5.59,3.71,11.9,5.76,18.5,7.06,11.74,2.33,23.51,4.52,35.11,7.41a95.33,95.33,0,0,1,20.59,7.24c22.9,11.79,27.79,41.82,10.36,61a50,50,0,0,1-23.6,14.35c-30.75,8.85-60.51,5.62-89.16-8.48a27.91,27.91,0,0,1-5.08-3.14c-2.78-2.19-4.52-4.81-2.3-8.44,1.74-2.83,3.14-5.94,5.3-8.39a5.91,5.91,0,0,1,5.2-1.4c3.71,1.35,7.06,3.64,10.66,5.31a105.05,105.05,0,0,0,52.38,9.7c8-.57,15.81-2.37,22.9-6.31,7.59-4.22,11.67-11,11.67-19.55,0-8.89-4.84-15.27-12.9-18.43a174.38,174.38,0,0,0-22.82-6.88c-7.75-1.87-15.75-2.68-23.49-4.54a145.6,145.6,0,0,1-20.91-6.42c-13.95-5.68-22.86-15.62-24.38-31.24-1.62-16.59,3.69-30.11,17.49-39.86a59.34,59.34,0,0,1,25.7-10.28C7925.75,1896.3,7932.39,1895.84,7936.23,1895.44Z" transform="translate(-160.11 -405.85)"/><path class="cls-2" d="M3528.91,1899c.37,6.79.72,13.21,1.06,19.43,5.94,1,7.6-3.43,10.48-5.74,24.73-19.83,52.32-21.8,81-11.5,19.84,7.13,30,23.47,34.35,43.46a75.77,75.77,0,0,1,1.62,15.84q.24,43.93.05,87.87c0,9.14-1.24,10.12-10.4,10.16a32.08,32.08,0,0,1-6-.28c-2.73-.5-5-1.86-5.16-5-.2-4-.29-8-.3-12,0-22,.19-43.93-.11-65.9a146.49,146.49,0,0,0-2.24-25.8c-3.63-18.59-16.47-30.11-35.32-33a73.75,73.75,0,0,0-23.86.21c-21.06,3.63-34.75,15.74-40.72,36.25-2.81,9.64-3.41,19.61-3.35,29.66q.18,32.94,0,65.9c-.06,9-1.31,10-10.64,10-1.33,0-2.66-.06-4-.13-3.76-.17-6.3-1.82-6.58-5.83-.18-2.65-.15-5.32-.15-8q0-66.9,0-133.81a50.5,50.5,0,0,1,.62-9.93,4.31,4.31,0,0,1,4.13-3.62C3518,1897,3522.6,1896.18,3528.91,1899Z" transform="translate(-160.11 -405.85)"/><path class="cls-2" d="M2477.89,1845.82c4.94-4.19,9.06-2.8,12.88-3.16,6.67-.63,11.3,2,14.66,8,4.88,8.69,10.38,17,15.57,25.54,14.89,24.41,29.7,48.87,44.7,73.21,2.37,3.85,3.75,8.66,8.53,10.65,4.47-1.14,5.4-5.35,7.35-8.52q30.27-49.3,60.37-98.7c3.13-5.13,6-10.85,13.36-10,4.27.46,10.06-2.62,12.39,2.88,1.63,3.85-2.46,7.18-4.46,10.46-23.17,38.05-46.2,76.19-69.81,114-5.87,9.4-9,18.67-8.62,29.85.65,17.27.11,34.58.1,51.88,0,4-2.09,6.1-5.92,6.45a64.09,64.09,0,0,1-8,.24c-7.51-.24-8.89-1.56-9-9.7-.14-17.29-.36-34.6.07-51.88.22-9-2.29-16.66-7-24.3-23.8-38.44-47.24-77.11-70.78-115.71C2482.28,1853.54,2480.37,1850.09,2477.89,1845.82Z" transform="translate(-160.11 -405.85)"/><path class="cls-2" d="M7004,1957.23c6.12-7.93,12.57-16.25,19-24.6,6.09-7.93,12.83-15.46,18.06-23.92,7.53-12.19,17.54-14.13,30.27-10.33-.63,6.42-5.2,9.8-8.32,13.91-14.12,18.57-28.52,36.93-42.66,55.48-5.78,7.57-5.81,7.87,0,15.42,15.39,20.11,31.07,40,46.45,60.13,3.08,4,7.51,7.33,8.55,13.76-6.51,2.58-13.1,1.65-19.52,1-4.36-.47-6.39-4.48-8.78-7.62-11.32-14.85-22.5-29.79-33.91-44.56-3.14-4.06-5.35-9.14-10.64-11.2-5.73,1.81-8,7-11.19,11.09-11.06,14.19-22.3,28.27-32.69,43-5.2,7.35-11.14,11.05-20,9.86-3.12-.41-6.68,1.11-9.25-2.22,0-5.15,4.24-7.86,6.92-11.39,15.75-20.67,31.74-41.17,47.47-61.86,5.57-7.33,5.56-7.66-.37-15.44-14.53-19.09-29.36-38-43.88-57.05-2.68-3.52-7.12-6.42-5.91-12,4.16-2.89,8.91-1.31,13.39-1.68,5.16-.42,8.68,2,11.74,6.09q16.23,21.57,32.89,42.8C6994.75,1949.85,6996.83,1955.24,7004,1957.23Z" transform="translate(-160.11 -405.85)"/><path class="cls-2" d="M6415,1937.2c-13.85-15.26-31.05-24.22-52.55-22.27-15.76,1.43-29.64,7.12-40.44,19.22-21.63,24.23-20.62,66.78,2.31,89.4,13.12,13,29.35,18,47.38,17,17.42-1,31.9-8.69,42.38-22.21,21.11,8.67,17.16,13,4.74,24.53-10.58,9.87-23.78,14.49-37.8,16.69-34,5.31-79.87-9-93.46-56.71a89.32,89.32,0,0,1,2.1-56.88c6.55-17.5,18.06-31.08,34.54-39.85,22.86-12.16,46.93-13.58,71.6-6.27a56.53,56.53,0,0,1,22.53,12.48C6429.65,1922.77,6436.33,1928.34,6415,1937.2Z" transform="translate(-160.11 -405.85)"/><path class="cls-2" d="M5461.06,1987.84c0-21.34.1-42.67-.06-64-.05-6.48-1.74-7.89-8.44-8.33-3.32-.22-6.66,0-10-.17-9.12-.41-12.39-5.13-9.87-14.38.51-1.89,1.58-3.65,4-3.75a14.58,14.58,0,0,0,2-.27c7-1.28,15.65,3.31,20.73-3.18,4.08-5.2,1.44-12.87,1.74-19.45,1.27-28.8,18.13-45.13,47.16-45.62,8.75-.15,17.28.63,25.37,4.39,7.68,3.55,8.69,6.27,5.07,14-1.88,4-4,6.58-9.1,4.73-5-1.79-10.12-3.6-15.32-4.12-18.42-1.85-29,6.87-31.55,25.32a49.7,49.7,0,0,0-.32,6c-.14,17.56-.47,18.08,17.31,17.91,8.67-.08,17.33,0,26,.16,4.95.11,6.73,3.12,6.79,7.82.09,7.32-1.19,10-6.48,10.16-10.65.39-21.32.16-32,.48-9.16.27-10.54,1.67-10.93,10.24-.22,4.66-.12,9.33-.12,14q0,49,0,98,0,7-.09,14c-.05,3.87-2,6.29-5.87,6.61a69.12,69.12,0,0,1-10,0c-3.92-.25-5.89-2.5-5.89-6.47s-.06-8-.06-12q0-26,0-52Z" transform="translate(-160.11 -405.85)"/><path class="cls-2" d="M7693.29,1863.45c.3,8.49.55,17.66,1,26.83.18,3.78,2.32,6.21,6.19,6.29,12,.22,24,.13,35.93.43,5.65.14,7.53,2.8,7.4,9.29s-2,8.82-7.92,9c-10.65.28-21.31,0-31.95.33-7.95.26-9.75,1.91-9.8,9.2q-.26,42.92,0,85.85a45.28,45.28,0,0,0,1.77,11.78c3.22,11.55,11,17.61,23,18.66,8.24.72,15.69-1.65,23.11-5,5.2-2.33,6.59,2.3,8.57,5.74,2.26,3.93,3,7.52-1.27,10.4-16,10.82-42.87,11-58.91.48a37.27,37.27,0,0,1-16.91-26,128,128,0,0,1-1.2-19.88c-.14-24.63-.05-49.26-.07-73.88,0-3.33-.15-6.66-.14-10,0-5.11-3.27-7-7.61-7.31-5.3-.43-10.67-.1-15.93-.74-5.05-.61-5.73-4.68-5.69-8.93s.34-8.34,5.68-8.8,10.63-.35,15.94-.52c4.69-.15,7.42-2.48,7.55-7.27.21-7.32.22-14.64.42-22,.1-3.86,2-6.18,6.08-6.14C7683.09,1861.39,7687.82,1860.29,7693.29,1863.45Z" transform="translate(-160.11 -405.85)"/><path class="cls-2" d="M4006.84,1917c-5.76-2.85-12.52-1.37-19.07-1.63-5-.19-7.07-2.5-7.46-7.22-.74-9.08.62-11.24,9.09-11.21,21.75.09,19.65.54,19.74-21.27,0-2.66.06-5.32.2-8,.2-3.79,2.08-6.22,6-6.32,4.6-.12,9.32-1,14,1.53,3.07,8.12.94,16.87,1.73,25.38.59,6.32,2.24,8.27,8.54,8.43,10.63.26,21.28,0,31.92.24,8.16.19,9.93,2.74,9.09,11.46-.37,3.79-2.07,6.43-5.93,6.55-11.29.34-22.6.23-33.89.57-7.87.24-9.63,1.78-9.67,9.35-.18,28.6-.75,57.22.12,85.79.77,25.21,16.25,35.55,40.31,28.46,1.9-.56,3.65-1.63,5.54-2.26,6.22-2.1,7.58-1.43,10.46,4.91,2.63,5.79,1.92,8.88-3.22,11.56-17.66,9.19-35.69,9.9-53.66,1.25-13.16-6.34-19.14-18-21.09-31.87-.74-5.23-.5-10.61-.51-15.93,0-26.6,0-53.21-.06-79.82C4009.09,1923.69,4009.46,1920.28,4006.84,1917Z" transform="translate(-160.11 -405.85)"/><path class="cls-2" d="M3127.89,1897.63c.63,7,1.2,13.42,1.74,19.53,5.87,1.62,7.71-2.89,10.42-5.38,11.35-10.46,25-15,40-15.88,7.35-.45,9,1.29,9,9.35a49.51,49.51,0,0,1-.27,6c-.34,2.86-1.71,5-4.87,5.28-4,.39-8,.42-11.92,1.16-20.18,3.81-33.34,15.48-39.32,35.29-2.73,9.06-3.43,18.28-3.41,27.65,0,22.66.08,45.33-.06,68-.06,9-1.25,9.9-10.7,9.94a29.7,29.7,0,0,1-6-.3c-2.68-.54-5.05-1.75-5.17-5s-.27-6.66-.27-10q0-65,0-130c0-3.33,0-6.67.12-10,.12-3.92,2.27-6.24,6.12-6.28C3118,1896.88,3122.56,1897.35,3127.89,1897.63Z" transform="translate(-160.11 -405.85)"/><path class="cls-2" d="M3348.59,1944.28q0,50.92,0,101.84c0,9.78,1,12.72-12.32,12.43-9.16-.2-10.19-1-10.2-10.5q-.12-102.84,0-205.67,0-3,.23-6c.26-3.8,2.23-6.21,6.09-6.48a66.36,66.36,0,0,1,10,0c3.86.29,5.87,2.75,6,6.54.19,4.65.23,9.31.23,14Q3348.61,1897.37,3348.59,1944.28Z" transform="translate(-160.11 -405.85)"/><path class="cls-2" d="M7554.33,1923.49c15.07-18.22,30.51-26.3,49.46-27.48,8.72-.54,10.06.68,10,10.16,0,1.33,0,2.66-.1,4-.22,3.71-1.73,6.23-5.85,6.51a87.17,87.17,0,0,0-11.9,1.13c-20.07,4.19-33,16.28-38.5,36a107.84,107.84,0,0,0-3.46,29.61q.26,31.9,0,63.81c-.07,10.46-1.19,11.38-11.31,11.29-8.57-.09-9.95-1-10-8.6q-.16-71.79,0-143.57c0-3.31-.29-7.65,3.24-8.58,5-1.32,10.49-2.19,15.42.77a4.64,4.64,0,0,1,1.74,3.21C7553.52,1907.48,7553.75,1913.22,7554.33,1923.49Z" transform="translate(-160.11 -405.85)"/><path class="cls-2" d="M7801.31,1975.68c0-23.29-.07-46.58,0-69.86,0-8,1.17-8.88,9.31-9.06.67,0,1.33,0,2,0,9.45.06,10.64,1,10.73,9.86.17,17.3.07,34.6.07,51.9,0,29.94.07,59.88-.05,89.82,0,9.11-1.36,10.16-10.46,10.22-10.32.06-11.56-.93-11.61-11C7801.23,2023.58,7801.31,1999.63,7801.31,1975.68Z" transform="translate(-160.11 -405.85)"/><path class="cls-2" d="M3417.3,1899c2.68-.89,4.51-2,6.38-2.06,17.25-.73,15.76.56,15.77,14.66q0,66.87,0,133.73c0,2.66-.16,5.32-.28,8-.16,3.32-2.61,4.42-5.25,5a28.18,28.18,0,0,1-6,.28c-9.47-.06-10.57-.9-10.61-10-.13-28-.05-55.89-.06-83.83Z" transform="translate(-160.11 -405.85)"/><path class="cls-2" d="M5586,1977.18c0-23.27-.1-46.54.06-69.81.06-9.11,1.52-10.39,10.32-10.44,2.63,0,5.26.43,7.89.66,2.47.22,3.45,2.28,3.75,4.06a60.81,60.81,0,0,1,.51,9.93q0,66.83,0,133.64c0,2.66-.09,5.32-.27,8-.22,3.16-2.36,4.59-5.17,5a51.38,51.38,0,0,1-7.94.37c-7.59-.19-9.08-1.56-9.12-9.51C5586,2025.06,5586,2001.12,5586,1977.18Z" transform="translate(-160.11 -405.85)"/><path class="cls-2" d="M8247.08,2060.3c-8.31.38-16.35-7.1-17-15.84a17.06,17.06,0,0,1,14.82-17.82c9.3-1,18,7,18,16.62C8262.84,2052.14,8255.64,2059.91,8247.08,2060.3Z" transform="translate(-160.11 -405.85)"/><path class="cls-2" d="M3444.34,1844.73c.36,8.79-7.25,16.44-16.24,16.31a15.42,15.42,0,0,1-15.44-14.83,15.65,15.65,0,0,1,16-16.37C3436.65,1830,3444,1837,3444.34,1844.73Z" transform="translate(-160.11 -405.85)"/><path class="cls-2" d="M7812,1829.81c7.88-.23,15.65,6.55,16.36,14.26.8,8.64-6.63,16.73-15.58,17a15.39,15.39,0,0,1-16.1-16.13A15.75,15.75,0,0,1,7812,1829.81Z" transform="translate(-160.11 -405.85)"/><path class="cls-2" d="M5613.29,1845.91a15.59,15.59,0,0,1-17.17,15.1,15.82,15.82,0,0,1-14.47-15.93c.29-8.74,8.68-16.1,17.35-15.22A15.69,15.69,0,0,1,5613.29,1845.91Z" transform="translate(-160.11 -405.85)"/></svg>