<?xml version="1.0" encoding="utf-8"?>
<!-- Generator: Adobe Illustrator 25.1.0, SVG Export Plug-In . SVG Version: 6.00 Build 0)  -->
<svg version="1.1" xmlns="http://www.w3.org/2000/svg" xmlns:xlink="http://www.w3.org/1999/xlink" x="0px" y="0px"
	 viewBox="0 0 492 492" style="enable-background:new 0 0 492 492;" xml:space="preserve">
<style type="text/css">
	.st0{fill:#1D1D1B;}
</style>
<g id="Layer_1">
	<path class="st0" d="M243.52,426.08L113.39,295.96c-0.72-0.7-1.16-1.68-1.16-2.77c0-2.14,1.74-3.88,3.88-3.88h78.36V70.14
		c0-2.14,1.74-3.88,3.88-3.88h95.81c2.14,0,3.88,1.74,3.88,3.88v219.17h78.36l0,0c0.99,0,1.99,0.38,2.75,1.14
		c1.52,1.52,1.52,3.97,0,5.49l0,0L249.03,426.06l-0.02,0.02C247.49,427.6,245.03,427.6,243.52,426.08L243.52,426.08L243.52,426.08z"
		/>
</g>
<g id="Master_Layer_3">
</g>
</svg>
